<?xml version="1.0" encoding="UTF-8" standalone="no"?><!DOCTYPE svg PUBLIC "-//W3C//DTD SVG 1.1//EN" "http://www.w3.org/Graphics/SVG/1.1/DTD/svg11.dtd"><svg width="100%" height="100%" viewBox="0 0 155 98" version="1.1" xmlns="http://www.w3.org/2000/svg" xmlns:xlink="http://www.w3.org/1999/xlink" xml:space="preserve" xmlns:serif="http://www.serif.com/" style="fill-rule:evenodd;clip-rule:evenodd;stroke-linecap:round;stroke-linejoin:round;stroke-miterlimit:1.5;"><g><g><path d="M74.851,8.691l0,80.753c0.16,0.029 -33.776,-5.725 -46.168,-4.454c-10.376,1.064 -28.183,12.079 -28.183,12.079l0,-81.955c0,0 14.846,-10.228 25.014,-10.143c27.31,0.226 49.337,3.72 49.337,3.72Z" style="fill:#005669;stroke:#fefefe;stroke-width:1px;"/><path d="M74.851,8.512l0,80.932c0,0 -31.677,-9.888 -43.229,-9.888c-9.413,0 -26.081,9.888 -26.081,9.888l0,-80.932c0,0 17.172,-8.088 26.081,-8.011c23.929,0.205 43.229,8.011 43.229,8.011Z" style="fill:#005669;stroke:#fefefe;stroke-width:1px;"/><path d="M11.161,19.245c0,0 5.445,-4.538 20.65,-7.144c10.732,-1.84 37.42,6.4 37.42,6.4" style="fill:none;stroke:#fefefe;stroke-width:1.11px;"/><path d="M11.161,26.657c0,0 5.445,-4.538 20.65,-7.144c10.732,-1.84 37.42,6.4 37.42,6.4" style="fill:none;stroke:#fefefe;stroke-width:1.11px;"/><path d="M11.161,34.069c0,0 5.445,-4.538 20.65,-7.144c10.732,-1.84 37.42,6.4 37.42,6.4" style="fill:none;stroke:#fefefe;stroke-width:1.11px;"/><path d="M11.161,41.481c0,0 5.445,-4.538 20.65,-7.144c10.732,-1.84 37.42,6.4 37.42,6.4" style="fill:none;stroke:#fefefe;stroke-width:1.11px;"/><path d="M11.161,48.893c0,0 5.445,-4.538 20.65,-7.144c10.732,-1.84 37.42,6.4 37.42,6.4" style="fill:none;stroke:#fefefe;stroke-width:1.11px;"/><path d="M11.161,56.305c0,0 5.445,-4.538 20.65,-7.144c10.732,-1.84 37.42,6.4 37.42,6.4" style="fill:none;stroke:#fefefe;stroke-width:1.11px;"/></g><g><path d="M79.614,8.691l0,80.753c-0.159,0.029 33.777,-5.725 46.169,-4.454c10.376,1.064 28.183,12.079 28.183,12.079l0,-81.955c0,0 -14.846,-10.228 -25.015,-10.143c-27.309,0.226 -49.337,3.72 -49.337,3.72Z" style="fill:#005669;stroke:#fefefe;stroke-width:1px;"/><path d="M79.614,8.512l0,80.932c0,0 31.678,-9.888 43.229,-9.888c9.414,0 26.082,9.888 26.082,9.888l0,-80.932c0,0 -17.172,-8.088 -26.082,-8.011c-23.928,0.205 -43.229,8.011 -43.229,8.011Z" style="fill:#005669;stroke:#fefefe;stroke-width:1px;"/><path d="M143.305,19.245c0,0 -5.445,-4.538 -20.65,-7.144c-10.732,-1.84 -37.421,6.4 -37.421,6.4" style="fill:none;stroke:#fefefe;stroke-width:1.11px;"/><path d="M143.305,26.657c0,0 -5.445,-4.538 -20.65,-7.144c-10.732,-1.84 -37.421,6.4 -37.421,6.4" style="fill:none;stroke:#fefefe;stroke-width:1.11px;"/><path d="M143.305,34.069c0,0 -5.445,-4.538 -20.65,-7.144c-10.732,-1.84 -37.421,6.4 -37.421,6.4" style="fill:none;stroke:#fefefe;stroke-width:1.11px;"/><path d="M143.305,41.481c0,0 -5.445,-4.538 -20.65,-7.144c-10.732,-1.84 -37.421,6.4 -37.421,6.4" style="fill:none;stroke:#fefefe;stroke-width:1.11px;"/><path d="M143.305,48.893c0,0 -5.445,-4.538 -20.65,-7.144c-10.732,-1.84 -37.421,6.4 -37.421,6.4" style="fill:none;stroke:#fefefe;stroke-width:1.11px;"/><path d="M143.305,56.305c0,0 -5.445,-4.538 -20.65,-7.144c-10.732,-1.84 -37.421,6.4 -37.421,6.4" style="fill:none;stroke:#fefefe;stroke-width:1.11px;"/></g><path d="M74.852,8.596l4.762,0" style="fill:none;stroke:#fefefe;stroke-width:1.11px;"/><path d="M74.852,89.444l4.762,0" style="fill:none;stroke:#fefefe;stroke-width:1.11px;"/></g></svg>